<?xml version="1.0" standalone="no"?>
<!DOCTYPE svg PUBLIC "-//W3C//DTD SVG 1.1//EN" "http://www.w3.org/Graphics/SVG/1.1/DTD/svg11.dtd" >
<svg>
<metadata>
Created by FontForge 20090914 at Tue Oct 27 14:55:47 2020
 By www-data
Copyright (c) 2010 by Typemade. All rights reserved.
</metadata>
<defs>
<font id="JosefinSans-LightItalic" horiz-adv-x="700" >
  <font-face 
    font-family="Josefin Sans"
    font-weight="300"
    font-style="italic"
    font-stretch="normal"
    units-per-em="1000"
    panose-1="0 0 0 0 0 0 0 0 0 0"
    ascent="750"
    descent="-250"
    x-height="375"
    cap-height="700"
    bbox="-41 -250.004 1097 764"
    underline-thickness="50"
    underline-position="-50"
    unicode-range="U+0020-U+007E"
  />
<missing-glyph horiz-adv-x="300" 
 />
    <glyph glyph-name=".notdef" horiz-adv-x="300" 
 />
    <glyph glyph-name="space" unicode=" " horiz-adv-x="300" 
 />
    <glyph glyph-name="exclam" unicode="!" horiz-adv-x="201" 
d="M48 29c-6.66699 0 -12.166 2.5 -16.499 7.5s-6.16602 11.167 -5.49902 18.5c0.666992 8 4.16699 14.5 10.5 19.5s12.5 7.5 18.5 7.5c7.33301 0 13.166 -2.5 17.499 -7.5s6.16602 -11.5 5.49902 -19.5c-1.33301 -7.33301 -5 -13.5 -11 -18.5s-12.333 -7.5 -19 -7.5v0z
M135.001 750h28l-82 -584h-28z" />
    <glyph glyph-name="quotedbl" unicode="&#x22;" horiz-adv-x="301" 
d="M178 472l35 248h31l-19.5 -124l-19.5 -124h-27zM45 472l35 248h31l-19.5 -124l-19.5 -124h-27z" />
    <glyph glyph-name="numbersign" unicode="#" horiz-adv-x="571" 
d="M201 400c-7.33301 -26 -14.166 -51.833 -20.499 -77.5l-19.5 -77.5h156l19.5 77.5c6.33301 25.667 13.166 51.5 20.499 77.5h-156zM253 0l28 109l28 109h-156l-28 -109l-28 -109h-28l28 109l28 109h-112c1.33301 4.66699 2.5 9.16699 3.5 13.5s2.16699 8.83301 3.5 13.5
h113l19.5 77.5c6.33301 25.667 13.166 51.5 20.499 77.5h-111c0.666992 4.66699 1.5 9.16699 2.5 13.5s2.16699 8.83301 3.5 13.5h112l57 216h28l-57 -216h156l57 216h28l-57 -216h129l-6 -27h-130c-7.33301 -26 -14.166 -51.833 -20.499 -77.5l-19.5 -77.5h128
c-1.33301 -4.66699 -2.5 -9.16699 -3.5 -13.5s-2.16699 -8.83301 -3.5 -13.5h-129l-28 -109l-28 -109h-28z" />
    <glyph glyph-name="dollar" unicode="$" horiz-adv-x="567" 
d="M147 527c-5.33301 -37.333 1.16797 -65.332 19.501 -83.999s45.166 -34 80.499 -46c4.66699 -2.66699 10 -4.66699 16 -6l41 285c-23.333 -1.33301 -44 -6.33301 -62 -15s-33.667 -19.834 -47 -33.501s-24 -29.167 -32 -46.5s-13.333 -35.333 -16 -54zM432.001 183.001
c4 26.667 2.16504 49.333 -5.50195 68s-18.667 34.334 -33 47.001s-31.166 23.167 -50.499 31.5s-38.333 15.833 -57 22.5l-47 -332c22.667 1.33301 45 6.16602 67 14.499s41.833 19.5 59.5 33.5s32.334 30.667 44.001 50s19.167 41 22.5 65zM466.999 644
c-3.33301 -3.33301 -6.50195 -6.99805 -9.50195 -10.998s-6.16699 -7.66699 -9.5 -11c-9.33301 10 -23.833 20.833 -43.5 32.5s-43.834 18.834 -72.501 21.501l-42 -295c20 -7.33301 41 -15.5 63 -24.5s41.667 -20.667 59 -35s31 -32.5 41 -54.5s12.667 -49 8 -81
c-4 -28.667 -12.833 -54.5 -26.5 -77.5s-30.667 -42.833 -51 -59.5s-43.166 -29.834 -68.499 -39.501s-52 -15.167 -80 -16.5l-8 -61h-28l8 61c-24 1.33301 -45.5 5.5 -64.5 12.5s-35.5 15.167 -49.5 24.5s-25.667 18.833 -35 28.5s-16.666 18.167 -21.999 25.5l22 20
c8 -9.33301 16.833 -18.666 26.5 -27.999s20.834 -18 33.501 -26s26.667 -14.833 42 -20.5s32.333 -8.83398 51 -9.50098l48 342c-1.33301 0.666992 -2.83301 1.16699 -4.5 1.5s-3.16699 1.16602 -4.5 2.49902c-12 4 -26 9.16699 -42 15.5s-31 15.166 -45 26.499
s-25.5 25.833 -34.5 43.5s-12.5 39.5 -10.5 65.5c1.33301 21.333 6.33301 42.666 15 63.999s21 40.833 37 58.5s35.333 32.334 58 44.001s49 18.167 79 19.5l9 61h28l-9 -61c23.333 -1.33301 45.833 -6.5 67.5 -15.5s43.167 -23.5 64.5 -43.5z" />
    <glyph glyph-name="percent" unicode="%" horiz-adv-x="726" 
d="M416 112c-1.33301 -12 -0.50293 -23.167 2.49707 -33.5s7.83301 -19.333 14.5 -27s14.834 -13.667 24.501 -18s20.5 -6.5 32.5 -6.5s23.5 2.16699 34.5 6.5s21 10.333 30 18s16.333 16.667 22 27s9.5 21.5 11.5 33.5c2.66699 23.333 -3.16602 43.333 -17.499 60
s-33.166 25 -56.499 25c-12 0 -23.5 -2.16699 -34.5 -6.5s-21 -10.333 -30 -18s-16.333 -16.667 -22 -27s-9.5 -21.5 -11.5 -33.5zM485.997 0c-15.333 0 -29.5 3 -42.5 9s-24 14 -33 24s-15.5 21.833 -19.5 35.5s-5 28.5 -3 44.5c2.66699 15.333 8 29.833 16 43.5
s17.833 25.5 29.5 35.5s24.834 17.833 39.501 23.5s29.667 8.5 45 8.5s29.5 -2.83301 42.5 -8.5s24 -13.5 33 -23.5s15.5 -21.833 19.5 -35.5s5 -28.167 3 -43.5c-2 -16 -7.16699 -30.833 -15.5 -44.5s-18.333 -25.5 -30 -35.5s-24.834 -18 -39.501 -24s-29.667 -9 -45 -9z
M150.997 388c-1.33301 -12 -0.50293 -23 2.49707 -33s7.83301 -18.833 14.5 -26.5s14.834 -13.667 24.501 -18s20.5 -6.5 32.5 -6.5s23.5 2.16699 34.5 6.5s21 10.333 30 18s16.333 16.5 22 26.5s9.5 21 11.5 33c2.66699 23.333 -3.16602 43.333 -17.499 60
s-33.166 25 -56.499 25c-12 0 -23.5 -2.16699 -34.5 -6.5s-21 -10.333 -30 -18s-16.333 -16.667 -22 -27s-9.5 -21.5 -11.5 -33.5zM220.994 276c-15.333 0 -29.501 3 -42.501 9s-24 14 -33 24s-15.5 21.833 -19.5 35.5s-5 28.5 -3 44.5c2 15.333 7 29.833 15 43.5
s18 25.5 30 35.5s25.333 18 40 24s29.667 9 45 9s29.333 -3 42 -9s23.5 -14 32.5 -24s15.667 -21.833 20 -35.5s5.5 -28.167 3.5 -43.5c-2.66699 -16 -8 -30.833 -16 -44.5s-18 -25.5 -30 -35.5s-25.167 -18 -39.5 -24s-29.166 -9 -44.499 -9zM164.993 0l184.5 250
l184.5 250h31l-184.5 -250l-184.5 -250h-31z" />
    <glyph glyph-name="ampersand" unicode="&#x26;" 
d="M107 187c-3.33301 -23.333 -2.16504 -45.167 3.50195 -65.5s15 -38 28 -53s29.167 -26.833 48.5 -35.5s40.666 -13 63.999 -13c30 0 58.333 6.83301 85 20.5s48.667 32.167 66 55.5l-60.5 128.5l-60.5 128.5c-22 -2 -42.833 -7.66699 -62.5 -17
s-37.334 -21.333 -53.001 -36s-28.667 -31.667 -39 -51s-16.833 -40 -19.5 -62zM478.001 237.999l-8.00098 -50.999c-2 -16.667 -6.33301 -32.667 -13 -48s-14.667 -29.666 -24 -42.999l24 -49.5l24 -50.5l-24 -15l-21.5 44.5l-21.5 44.5
c-21.333 -23.333 -46.5 -42 -75.5 -56s-59.5 -21 -91.5 -21c-27.333 0 -52.166 5 -74.499 15s-41 23.833 -56 41.5s-26 38.167 -33 61.5s-8.5 48.666 -4.5 75.999c3.33301 24 10.666 46.833 21.999 68.5s25.5 41 42.5 58s36.167 31.167 57.5 42.5s43.666 19 66.999 23
l-27.5 58.5l-27.5 58.5c-9.33301 20 -14.833 40.667 -16.5 62s0.5 42.333 6.5 63s16.333 40 31 58s34 33.667 58 47c20.667 11.333 40.834 18.166 60.501 20.499s38.5 1.83301 56.5 -1.5s34.833 -8.66602 50.5 -15.999s29.167 -15 40.5 -23l-15 -24
c-12.667 8 -26 15.5 -40 22.5s-28.5 12 -43.5 15s-30.5 3.5 -46.5 1.5s-32.333 -7.66699 -49 -17c-42 -24.667 -67.833 -55.167 -77.5 -91.5s-6.5 -71.833 9.5 -106.5l88.5 -186.5l88.5 -186.5c16 24.667 27 52 33 82l8 56c4.66699 27.333 10.834 48.166 18.501 62.499
s16.167 24.5 25.5 30.5s19.333 9.33301 30 10s21.667 1 33 1h39l-3 -27h-55c-20.667 0 -35.5 -8.16699 -44.5 -24.5s-16.167 -44.833 -21.5 -85.5z" />
    <glyph glyph-name="quotesingle" unicode="'" horiz-adv-x="150" 
d="M44 472l35 248h31l-19.5 -124l-19.5 -124h-27z" />
    <glyph glyph-name="parenleft" unicode="(" horiz-adv-x="400" 
d="M141 292c6.66699 50 17.8369 97.667 33.5039 143s34 87.333 55 126s43.5 73.834 67.5 105.501s48 58.5 72 80.5c2 -4 4.16699 -7.83301 6.5 -11.5l7.5 -11.5c-22 -22 -44.333 -48 -67 -78s-43.834 -63.333 -63.501 -100s-36.834 -76.334 -51.501 -119.001
s-25.334 -87.667 -32.001 -135s-8.66699 -92.333 -6 -135s8.66699 -82.334 18 -119.001s21.166 -70 35.499 -100s29.5 -56 45.5 -78l-10 -11.5l-10 -11.5c-18 22 -34.667 48.833 -50 80.5s-28 66.834 -38 105.501s-16.5 80.667 -19.5 126s-0.833008 93 6.5 143z" />
    <glyph glyph-name="parenright" unicode=")" horiz-adv-x="400" 
d="M286 291c-7.33301 -50 -18.8369 -97.667 -34.5039 -143s-34 -87.333 -55 -126s-43.5 -73.834 -67.5 -105.501s-48 -58.5 -72 -80.5l-7.5 11.5c-2.33301 3.66699 -4.5 7.5 -6.5 11.5c22 22 44.333 48 67 78s43.834 63.333 63.501 100s36.834 76.334 51.501 119.001
s25.334 87.667 32.001 135s8.66699 92.333 6 135s-8.66699 82.334 -18 119.001s-21.166 70 -35.499 100s-29.5 56 -45.5 78l10 11.5l10 11.5c18 -22 34.667 -48.833 50 -80.5s28 -66.834 38 -105.501s16.5 -80.667 19.5 -126s1.16699 -93 -5.5 -143z" />
    <glyph glyph-name="asterisk" unicode="*" horiz-adv-x="335" 
d="M195 575l47 -29.002l47 -29l-10 -13.5l-10 -13.5l-93 60c-3.33301 -19.333 -6.33301 -38.666 -9 -57.999s-5.66699 -38.666 -9 -57.999h-27l16 116l-54 -29.5l-54 -28.5c-2 4.66699 -3.83301 9.16699 -5.5 13.5s-3.5 8.83301 -5.5 13.5l108 57l-45.5 30l-45.5 30
c2 4 4.5 8 7.5 12s5.83301 8 8.5 12l47 -30l47 -30l17 120h31c-3.33301 -20 -6.5 -40 -9.5 -60s-6.16699 -40 -9.5 -60l112 59c2 -4 3.83301 -8 5.5 -12s3.16699 -8 4.5 -12z" />
    <glyph glyph-name="plus" unicode="+" horiz-adv-x="543" 
d="M226 51l24 167h-166l4 27h166l23 166h28l-23 -166h166l-4 -27h-166l-24 -167h-28z" />
    <glyph glyph-name="comma" unicode="," horiz-adv-x="200" 
d="M148 86l-57.5 -103l-57.5 -103h-26l53 103l53 103h35z" />
    <glyph glyph-name="hyphen" unicode="-" horiz-adv-x="300" 
d="M51 177l3 27h184l-3 -27h-184z" />
    <glyph glyph-name="period" unicode="." horiz-adv-x="163" 
d="M59 26c1.33301 7.33301 4.83301 13.666 10.5 18.999s12.167 8 19.5 8s13.333 -2.66699 18 -8s6.33398 -11.666 5.00098 -18.999s-4.83301 -13.5 -10.5 -18.5s-12.167 -7.5 -19.5 -7.5s-13.333 2.5 -18 7.5s-6.33398 11.167 -5.00098 18.5z" />
    <glyph glyph-name="slash" unicode="/" horiz-adv-x="334" 
d="M-36 -19l192 377.5l192 377.5h28l-192 -377.5l-192 -377.5h-28z" />
    <glyph glyph-name="zero" unicode="0" horiz-adv-x="616" 
d="M36 327c5.33301 35.333 15.8301 72.5 31.4971 111.5s36.834 74.833 63.501 107.5s58.5 59.5 95.5 80.5s79.5 31.5 127.5 31.5c46.667 0 85.334 -10.833 116.001 -32.5s54.5 -48.834 71.5 -81.501s27.667 -68.5 32 -107.5s3.83301 -76.5 -1.5 -112.5
c-6.66699 -47.333 -20.167 -91.166 -40.5 -131.499s-45 -75.333 -74 -105s-61.167 -52.834 -96.5 -69.501s-71 -25 -107 -25s-68.833 8.66699 -98.5 26s-54.5 40.833 -74.5 70.5s-34.167 64.834 -42.5 105.501s-9.16602 84.667 -2.49902 132zM64.9971 328
c-6.66699 -46 -6.00293 -87.833 1.99707 -125.5s21.167 -70 39.5 -97s40.833 -48 67.5 -63s55.334 -22.5 86.001 -22.5s61.5 7.16699 92.5 21.5s59.5 34.833 85.5 61.5s48.5 58.667 67.5 96s31.833 78.666 38.5 123.999c6.66699 44 6.83398 84.667 0.500977 122
s-18 69.833 -35 97.5s-39.167 49.334 -66.5 65.001s-58.666 23.5 -93.999 23.5s-68.833 -7.5 -100.5 -22.5s-60 -36 -85 -63s-46.167 -59 -63.5 -96s-29 -77.5 -35 -121.5z" />
    <glyph glyph-name="one" unicode="1" horiz-adv-x="254" 
d="M75 623l4 27h132l-91 -650h-28l87 623h-104z" />
    <glyph glyph-name="two" unicode="2" horiz-adv-x="500" 
d="M79 27l335.998 -0.00195312l-4 -27h-405l141.5 122c45.667 40 86.667 79 123 117s66.333 74.667 90 110s37.834 68.666 42.501 99.999c4.66699 34.667 3.66699 63.667 -3 87s-16.667 42 -30 56s-28.5 24 -45.5 30s-33.5 9 -49.5 9c-31.333 0 -58 -5.66699 -80 -17
s-40 -25.166 -54 -41.499s-24.5 -34.166 -31.5 -53.499s-11.833 -37 -14.5 -53c-6 -46 2.33301 -83.333 25 -112c-3.33301 -3.33301 -6.66602 -6.16602 -9.99902 -8.49902s-6.66602 -4.83301 -9.99902 -7.5c-13.333 15.333 -23 33.833 -29 55.5s-7.33301 45.834 -4 72.501
c4 26.667 11.667 51.667 23 75s26 43.666 44 60.999s39.167 31 63.5 41s51.5 15 81.5 15c26.667 0 50.5 -5 71.5 -15s38.167 -23.833 51.5 -41.5s22.666 -38.5 27.999 -62.5s6 -50 2 -78c-5.33301 -37.333 -19.5 -74.5 -42.5 -111.5s-51.167 -73.5 -84.5 -109.5
s-69.833 -71.833 -109.5 -107.5z" />
    <glyph glyph-name="three" unicode="3" horiz-adv-x="515" 
d="M177 354l118.001 134.501l118 133.5h-268l4 28h321l-111.5 -124.5l-111.5 -124.5c28.667 -0.666992 54.834 -6.16699 78.501 -16.5s43.667 -24.5 60 -42.5s28.333 -39.333 36 -64s9.5 -51.334 5.5 -80.001s-13.333 -55.5 -28 -80.5s-32.667 -46.833 -54 -65.5
s-45.333 -33.334 -72 -44.001s-54.334 -16 -83.001 -16c-30 0 -57 6 -81 18s-44 28.333 -60 49l11.5 11l11.5 11c12.667 -18 29.334 -32.833 50.001 -44.5s44 -17.5 70 -17.5c24.667 0 48.667 4.83301 72 14.5s44.5 22.667 63.5 39s34.833 35.333 47.5 57
s20.667 44.5 24 68.5c3.33301 24.667 1.66602 47.834 -5.00098 69.501s-17.167 40.5 -31.5 56.5s-31.833 28.667 -52.5 38s-43.334 14 -68.001 14c-11.333 0 -22.5 -2 -33.5 -6s-21.5 -9.33301 -31.5 -16z" />
    <glyph glyph-name="four" unicode="4" horiz-adv-x="510" 
d="M409 576l-165.5 -183l-166.5 -183h281zM16 183l216.5 237.5l216.5 237.5l-63 -448h97l-4 -27h-97l-26 -183h-28l26 183h-338z" />
    <glyph glyph-name="five" unicode="5" horiz-adv-x="543" 
d="M144 331l44.9941 319.002h287l-4 -27h-259l-34 -241c14 5.33301 28.167 9.83301 42.5 13.5s28.833 5.5 43.5 5.5c28.667 0 54.834 -5.33301 78.501 -16s43.667 -25.167 60 -43.5s28.333 -39.833 36 -64.5s9.5 -51 5.5 -79c-4 -28.667 -13.333 -55.5 -28 -80.5
s-32.667 -46.833 -54 -65.5s-45.5 -33.334 -72.5 -44.001s-54.5 -16 -82.5 -16s-53.333 5 -76 15s-42 24 -58 42l11.5 9.5c3.66699 3 7.83398 6.16699 12.501 9.5c13.333 -15.333 29.5 -27.333 48.5 -36s40.167 -13 63.5 -13c24.667 0 48.834 4.83301 72.501 14.5
s44.834 22.667 63.501 39s34.334 35.333 47.001 57s20.667 44.5 24 68.5s1.66602 46.667 -5.00098 68s-17 40 -31 56s-31.5 28.5 -52.5 37.5s-43.833 13.5 -68.5 13.5c-23.333 0 -45.166 -3.83301 -65.499 -11.5s-37.166 -17.834 -50.499 -30.501z" />
    <glyph glyph-name="six" unicode="6" horiz-adv-x="520" 
d="M61 196c-4 -24.667 -2.83301 -47.667 3.5 -69s16.333 -40 30 -56s30.667 -28.667 51 -38s42.833 -14 67.5 -14s48.667 4.66699 72 14s44.333 22 63 38s34.334 34.667 47.001 56s20.667 44.333 24 69s1.66602 47.667 -5.00098 69s-17 40 -31 56s-31.333 28.667 -52 38
s-43.334 14 -68.001 14s-48.334 -4.66699 -71.001 -14s-43.167 -22 -61.5 -38s-33.666 -34.667 -45.999 -56s-20.166 -44.333 -23.499 -69zM33 194c6.66699 48 23.167 92.8359 49.5 134.503s58 80.667 95 117s77.333 70 121 101l127.5 87.5c2.66699 -4 5.16699 -8 7.5 -12
s4.83301 -7.66699 7.5 -11c-87.333 -53.333 -156.5 -104 -207.5 -152s-87.167 -89 -108.5 -123c18 19.333 39.333 35 64 47s51 18 79 18c28.667 0 54.834 -5.33301 78.501 -16s43.5 -25.334 59.5 -44.001s27.833 -40.5 35.5 -65.5s9.5 -51.5 5.5 -79.5
s-13.333 -54.333 -28 -79s-32.667 -46.334 -54 -65.001s-45.333 -33.334 -72 -44.001s-54.334 -16 -83.001 -16c-28 0 -53.833 5.33301 -77.5 16s-43.5 25 -59.5 43s-27.667 39.333 -35 64s-9 51 -5 79z" />
    <glyph glyph-name="seven" unicode="7" horiz-adv-x="469" 
d="M55 622l4 28h403l-191.5 -325l-191.5 -325h-33l184 311l184 311h-359z" />
    <glyph glyph-name="eight" unicode="8" horiz-adv-x="510" 
d="M159 508c-2 -15.333 -0.832031 -29.501 3.50098 -42.501s11.166 -24.167 20.499 -33.5s21 -16.666 35 -21.999s29.333 -8 46 -8c34 0 63.5 10 88.5 30s39.833 45.333 44.5 76c2 16.667 1 32.334 -3 47.001s-10.5 27.667 -19.5 39s-20.167 20.333 -33.5 27
s-28.333 10 -45 10s-32.834 -3.33301 -48.501 -10s-29.667 -15.667 -42 -27s-22.666 -24.333 -30.999 -39s-13.5 -30.334 -15.5 -47.001zM59.001 197.999c-3.33301 -24 -1.83203 -46.833 4.50098 -68.5s16.166 -40.667 29.499 -57s30 -29.333 50 -39s42.333 -14.5 67 -14.5
s48.667 4.83301 72 14.5s44.333 22.667 63 39s34.334 35.333 47.001 57s20.667 44.5 24 68.5s1.83301 46.667 -4.5 68s-16.666 40 -30.999 56s-31.833 28.5 -52.5 37.5s-43.334 13.5 -68.001 13.5s-48.334 -4.5 -71.001 -13.5s-43 -21.5 -61 -37.5s-33 -34.667 -45 -56
s-20 -44 -24 -68zM31.002 197.999c3.33301 22.667 9.99902 44.1689 19.999 64.502s22.333 38.833 37 55.5s31.5 31.167 50.5 43.5s39.167 21.5 60.5 27.5c-23.333 10 -41.5 26.167 -54.5 48.5s-17.167 47.833 -12.5 76.5c2.66699 20 9 38.667 19 56s22.5 32.5 37.5 45.5
s32 23.333 51 31s38.5 11.5 58.5 11.5c20.667 0 39.334 -3.83301 56.001 -11.5s30.834 -18.167 42.501 -31.5s20 -29 25 -47s6.16699 -37 3.5 -57c-4 -28 -15.167 -52.667 -33.5 -74s-40.5 -37.333 -66.5 -48c20 -6 38.167 -15 54.5 -27s29.833 -26.333 40.5 -43
s18.167 -35.334 22.5 -56.001s4.83301 -42.334 1.5 -65.001c-4 -28.667 -13.167 -55.5 -27.5 -80.5s-32.333 -46.833 -54 -65.5s-45.834 -33.334 -72.501 -44.001s-54 -16 -82 -16s-53.833 5.33301 -77.5 16s-43.5 25.334 -59.5 44.001s-27.667 40.5 -35 65.5
s-9 51.833 -5 80.5z" />
    <glyph glyph-name="nine" unicode="9" horiz-adv-x="525" 
d="M451 429c3.33301 24.667 2 47.667 -4 69s-16 40 -30 56s-31.167 28.667 -51.5 38s-42.833 14 -67.5 14s-48.667 -4.66699 -72 -14s-44.166 -22 -62.499 -38s-33.833 -34.667 -46.5 -56s-20.667 -44.333 -24 -69s-1.83301 -47.667 4.5 -69s16.5 -40 30.5 -56
s31.333 -28.667 52 -38s43.334 -14 68.001 -14s48.5 4.66699 71.5 14s43.667 22 62 38s33.666 34.667 45.999 56s20.166 44.333 23.499 69zM478 429c-6.66699 -48 -23.166 -92.668 -49.499 -134.001s-58.166 -80 -95.499 -116s-77.833 -69.5 -121.5 -100.5l-126.5 -86.5
l-7 11.5c-2.66699 4.33301 -5.33398 8.16602 -8.00098 11.499c88 53.333 157.5 104 208.5 152s87.167 89 108.5 123c-18.667 -20 -40.334 -35.833 -65.001 -47.5s-51 -17.5 -79 -17.5c-28.667 0 -54.834 5.33301 -78.501 16s-43.5 25.334 -59.5 44.001
s-27.667 40.334 -35 65.001s-9 51 -5 79s13.167 54.5 27.5 79.5s32.166 46.833 53.499 65.5s45.333 33.334 72 44.001s54.334 16 83.001 16s54.834 -5.33301 78.501 -16s43.5 -25.334 59.5 -44.001s27.5 -40.5 34.5 -65.5s8.5 -51.5 4.5 -79.5z" />
    <glyph glyph-name="colon" unicode=":" horiz-adv-x="175" 
d="M76 276c1.33301 7.33301 4.83301 13.666 10.5 18.999s12.167 8 19.5 8s13.166 -2.66699 17.499 -8s5.83301 -11.666 4.5 -18.999c-0.666992 -7.33301 -4 -13.5 -10 -18.5s-12.667 -7.5 -20 -7.5s-13.166 2.5 -17.499 7.5s-5.83301 11.167 -4.5 18.5zM41 26
c0.666992 7.33301 4 13.666 10 18.999s12.667 8 20 8s13.166 -2.66699 17.499 -8s5.83301 -11.666 4.5 -18.999s-4.83301 -13.5 -10.5 -18.5s-12.167 -7.5 -19.5 -7.5s-13.166 2.5 -17.499 7.5s-5.83301 11.167 -4.5 18.5z" />
    <glyph glyph-name="semicolon" unicode=";" horiz-adv-x="201" 
d="M109 276c1.33301 7.33301 4.83301 13.666 10.5 18.999s12.167 8 19.5 8c6.66699 0 12.334 -2.66699 17.001 -8s6.66699 -11.666 6 -18.999c-1.33301 -7.33301 -5 -13.5 -11 -18.5s-12.333 -7.5 -19 -7.5c-7.33301 0 -13.333 2.5 -18 7.5s-6.33398 11.167 -5.00098 18.5z
M118 86l-57 -103l-57 -103h-26l52 103l53 103h35z" />
    <glyph glyph-name="less" unicode="&#x3c;" horiz-adv-x="680" 
d="M522 21l-5 -36l-201 126.5l-201 126.5l236 126.5l237 126.5l-5 -36l-203.5 -108.5l-204.5 -108.5l173 -108.5z" />
    <glyph glyph-name="equal" unicode="=" horiz-adv-x="708" 
d="M594 170l-4 -28h-506l4 28h506zM621 364l-4 -28h-506l4 28h506z" />
    <glyph glyph-name="greater" unicode="&#x3e;" horiz-adv-x="650" 
d="M79 -15l5 36l204.5 108.5l204.5 108.5l-174 108.5l-174 108.5l5 36l201 -126.5l202 -126.5l-237 -126.5z" />
    <glyph glyph-name="question" unicode="?" horiz-adv-x="452" 
d="M87 587l-12.0049 3.99414l-12 4c8.66699 18 19.834 35.333 33.501 52s29.334 31.334 47.001 44.001s37.167 22.667 58.5 30s44 11 68 11c27.333 0 52.333 -5.16699 75 -15.5s41.5 -24.333 56.5 -42s26 -38.334 33 -62.001s8.5 -48.834 4.5 -75.501
c-5.33301 -36 -18.666 -67.667 -39.999 -95s-48.666 -51.666 -81.999 -72.999c-13.333 -9.33301 -26 -17.166 -38 -23.499s-22.833 -13.666 -32.5 -21.999s-17.834 -18.666 -24.501 -30.999s-11.667 -29.166 -15 -50.499l-11 -78h-28l14 97
c2.66699 20.667 8.66699 37.334 18 50.001s20.833 24 34.5 34s28.834 19.5 45.501 28.5s34 20.5 52 34.5c23.333 18 41.5 37.833 54.5 59.5s21.167 44.834 24.5 69.501c3.33301 24 2.16602 46.167 -3.50098 66.5s-15 38 -28 53s-29.167 26.833 -48.5 35.5
s-40.666 13 -63.999 13c-39.333 0 -75.166 -10.667 -107.499 -32s-56.5 -50 -72.5 -86zM161.995 19.9941c-6 0 -11.332 2.5 -15.999 7.5s-6.33398 11.167 -5.00098 18.5c0.666992 8 4 14.5 10 19.5s12 7.5 18 7.5c6.66699 0 12.5 -2.5 17.5 -7.5s6.83301 -11.5 5.5 -19.5
c-1.33301 -7.33301 -5 -13.5 -11 -18.5s-12.333 -7.5 -19 -7.5z" />
    <glyph glyph-name="at" unicode="@" horiz-adv-x="990" 
d="M321 188c-3.33301 -23.333 -2.16602 -45.166 3.50098 -65.499s15 -38 28 -53s29.167 -26.833 48.5 -35.5s40.666 -13 63.999 -13s45.833 4.33301 67.5 13s41.167 20.5 58.5 35.5s31.666 32.667 42.999 53s18.666 42.166 21.999 65.499s2.16602 45.166 -3.50098 65.499
s-15 38.166 -28 53.499s-29.167 27.333 -48.5 36s-40.666 13 -63.999 13s-45.833 -4.33301 -67.5 -13s-41.167 -20.667 -58.5 -36s-31.666 -33.166 -42.999 -53.499s-18.666 -42.166 -21.999 -65.499zM889 188c-7.33301 -38.667 -17.165 -70.1699 -29.498 -94.5029
s-26.333 -43.5 -42 -57.5s-32.334 -23.5 -50.001 -28.5s-34.834 -7.5 -51.501 -7.5h-84l7 47l4 27.5l4 27.5c-8 -15.333 -18.333 -29.5 -31 -42.5s-27 -24.333 -43 -34s-33.5 -17.5 -52.5 -23.5s-38.833 -9 -59.5 -9c-27.333 0 -52.166 5.16699 -74.499 15.5
s-41 24.166 -56 41.499s-26 37.833 -33 61.5s-8.5 49.167 -4.5 76.5c4 26.667 12.667 51.834 26 75.501s30 44.334 50 62.001s42.667 31.667 68 42s51.666 15.5 78.999 15.5c20 0 38.5 -2.83301 55.5 -8.5s32.167 -13.5 45.5 -23.5s24.5 -21.667 33.5 -35
s15.5 -27.333 19.5 -42c2.66699 16.667 5.66699 33.334 9 50.001l10 51h22l-49 -348h63c34 0 62.833 12.667 86.5 38s40.167 66.333 49.5 123c7.33301 52 4.5 100.667 -8.5 146s-34 85 -63 119s-64.833 60.833 -107.5 80.5s-89.667 29.5 -141 29.5
c-52 0 -102 -9.83301 -150 -29.5s-91.167 -46.5 -129.5 -80.5s-70.5 -73.667 -96.5 -119s-42.667 -94 -50 -146c-7.33301 -51.333 -4.33301 -99.666 9 -144.999s34.5 -84.833 63.5 -118.5s64.833 -60.334 107.5 -80.001s89.667 -29.5 141 -29.5
c40.667 0 80.167 6.33301 118.5 19s74.5 29.667 108.5 51c2 -4 4.33301 -7.66699 7 -11s5 -6.66602 7 -9.99902c-36 -24 -74.833 -42.667 -116.5 -56s-84.5 -20 -128.5 -20c-55.333 0 -105.833 10.5 -151.5 31.5s-84 49.667 -115 86s-53.667 78.833 -68 127.5
s-17.5 100.667 -9.5 156s25.833 107.333 53.5 156s62.167 91.167 103.5 127.5s87.833 65 139.5 86s105.167 31.5 160.5 31.5s105.833 -10.5 151.5 -31.5s84 -49.667 115 -86s53.667 -78.833 68 -127.5s17.5 -101 9.5 -157z" />
    <glyph glyph-name="A" unicode="A" horiz-adv-x="740" 
d="M418 643l-6 26.999c-1.33301 -4 -3.33301 -8.66699 -6 -14s-5 -9.66602 -7 -12.999l-85 -154.5l-88 -153.5h278l-42.5 154zM628 -0.000976562h-28l-44 154l-44 154h-302l-86 -154l-87 -154h-29l206.5 366l206.5 366z" />
    <glyph glyph-name="B" unicode="B" horiz-adv-x="535" 
d="M152 673l-43.998 -308.001h140c24.667 0 47.667 3.83301 69 11.5s40 18.5 56 32.5s29.333 30.833 40 50.5s17.667 41.5 21 65.5c3.33301 26.667 2.16602 49.334 -3.50098 68.001s-15 34 -28 46s-29.333 20.667 -49 26s-41.834 8 -66.501 8h-135zM105.002 337.999
l-44.999 -311.001h141c26 0 50.833 3.16699 74.5 9.5s45 15.833 64 28.5s35 28.667 48 48s21.167 41.666 24.5 66.999c3.33301 24.667 2.16602 45.667 -3.50098 63s-14.167 31.833 -25.5 43.5s-24.333 20.834 -39 27.501s-29.334 11.834 -44.001 15.501s-28.667 6 -42 7
s-23.666 1.5 -30.999 1.5h-122zM29.0029 -0.00195312l98.9971 699.998h152c30.667 0 58.334 -3.33301 83.001 -10s45 -17 61 -31s27.5 -32.167 34.5 -54.5s8.16699 -48.833 3.5 -79.5c-5.33301 -41.333 -20.666 -77.666 -45.999 -108.999s-60 -52.666 -104 -63.999
c19.333 -4 37.5 -10.667 54.5 -20s31.5 -21.333 43.5 -36s20.833 -31.667 26.5 -51s6.83398 -41 3.50098 -65c-4 -30 -13.667 -56.167 -29 -78.5s-34 -41 -56 -56s-46.5 -26.333 -73.5 -34s-54.5 -11.5 -82.5 -11.5h-170z" />
    <glyph glyph-name="C" unicode="C" horiz-adv-x="670" 
d="M544 65l13.0029 -22.998c-28.667 -15.333 -58.834 -27.5 -90.501 -36.5s-64.5 -13.5 -98.5 -13.5c-49.333 0 -94.333 9.33301 -135 28s-74.834 44.167 -102.501 76.5s-47.834 70.166 -60.501 113.499s-15.667 89.666 -9 138.999s22.5 95.833 47.5 139.5s56 81.667 93 114
s78.5 58 124.5 77s93.667 28.5 143 28.5c34 0 65.5 -4.33301 94.5 -13s56.167 -21 81.5 -37l-9.5 -11.5l-9.5 -11.5c-46 30.667 -99.667 46 -161 46c-45.333 0 -89.166 -8.83301 -131.499 -26.5s-80.5 -41.5 -114.5 -71.5s-62.5 -65.167 -85.5 -105.5
s-37.833 -83.5 -44.5 -129.5c-6 -45.333 -3.33301 -88 8 -128s29.833 -74.833 55.5 -104.5s57 -53.167 94 -70.5s77.833 -26 122.5 -26c31.333 0 61.666 4 90.999 12s57.333 19.333 84 34z" />
    <glyph glyph-name="D" unicode="D" horiz-adv-x="652" 
d="M130 700l141.998 -0.00292969c48 0 92.167 -8.16699 132.5 -24.5s74.333 -39.666 102 -69.999s47.834 -67.166 60.501 -110.499s15.334 -91.666 8.00098 -144.999c-6 -42 -18.333 -83.833 -37 -125.5s-45.5 -79.167 -80.5 -112.5s-78.667 -60.333 -131 -81
s-114.833 -31 -187.5 -31h-108zM153.998 672.997l-45.498 -322.5l-45.5 -322.5h92c62 0 116.333 9.33301 163 28s86.167 43 118.5 73s57.666 64.333 75.999 103s30.166 78 35.499 118c6.66699 49.333 4.16699 94 -7.5 134s-30.167 74 -55.5 102s-56.333 49.5 -93 64.5
s-77 22.5 -121 22.5h-117z" />
    <glyph glyph-name="E" unicode="E" horiz-adv-x="601" 
d="M40 0l99 700h410l-4 -27h-382l-44 -307h344l-4 -27h-343l-45 -312h397l-4 -27h-424z" />
    <glyph glyph-name="F" unicode="F" horiz-adv-x="587" 
d="M40 0l99 700h410l-4 -27h-382l-44 -307h344l-4 -27h-343l-48 -339h-28z" />
    <glyph glyph-name="G" unicode="G" horiz-adv-x="678" 
d="M404 273l3.00195 27.002h130c20 0 34 -3.16699 42 -9.5s10.667 -19.166 8 -38.499l-30 -210c-28.667 -15.333 -58.834 -27.5 -90.501 -36.5s-64.5 -13.5 -98.5 -13.5c-49.333 0 -94.333 9.33301 -135 28s-74.834 44.167 -102.501 76.5s-47.834 70.166 -60.501 113.499
s-15.667 89.666 -9 138.999s22.5 95.833 47.5 139.5s56 81.667 93 114s78.5 58 124.5 77s93.667 28.5 143 28.5c34 0 65.5 -4.33301 94.5 -13s56.167 -21 81.5 -37l-9.5 -11.5l-9.5 -11.5c-46 30.667 -99.667 46 -161 46c-45.333 0 -89.166 -8.83301 -131.499 -26.5
s-80.5 -41.5 -114.5 -71.5s-62.5 -65.167 -85.5 -105.5s-37.833 -83.5 -44.5 -129.5c-6 -45.333 -3.33301 -88 8 -128s29.833 -74.833 55.5 -104.5s57 -53.167 94 -70.5s77.833 -26 122.5 -26c56.667 0 110.667 13.333 162 40l19 133l8 57
c1.33301 7.33301 0.333008 13.166 -3 17.499s-10.333 6.5 -21 6.5h-130z" />
    <glyph glyph-name="H" unicode="H" 
d="M49 0l99 700h28l-48 -334h447l47 334h31l-50.5 -350l-51.5 -350h-28l48 339h-446l-48 -339h-28z" />
    <glyph glyph-name="I" unicode="I" horiz-adv-x="238" 
d="M154 700h28l-99 -700h-28z" />
    <glyph glyph-name="J" unicode="J" horiz-adv-x="302" 
d="M-41 -142l3.99707 26.998c24 1.33301 46.833 6.83301 68.5 16.5s41.167 23.334 58.5 41.001s32 39.167 44 64.5s20.333 54 25 86l86 607h28l-86 -610c-5.33301 -37.333 -15.166 -70.166 -29.499 -98.499s-31.666 -52.166 -51.999 -71.499s-43.166 -34.333 -68.499 -45
s-51.333 -16.334 -78 -17.001z" />
    <glyph glyph-name="K" unicode="K" horiz-adv-x="600" 
d="M498 0l-36 -0.00195312l-130 202l-131 202l-54 -45l-54 -45l-21.5 -157.5l-21.5 -156.5h-28l99 700h28l-47 -327c-0.666992 -5.33301 -1.5 -10.166 -2.5 -14.499s-1.83301 -9.16602 -2.5 -14.499l20 20l199.5 168l200.5 168h38l-166 -139l-165 -139l137 -211z" />
    <glyph glyph-name="L" unicode="L" horiz-adv-x="593" 
d="M40 0l99 700h28l-96 -673h397l-4 -27h-424z" />
    <glyph glyph-name="M" unicode="M" horiz-adv-x="937" 
d="M151 732l149.5 -237.5l149.5 -237.5l216.5 237.5l216.5 237.5l-103 -732h-28l61 438l25 172c1.33301 7.33301 2.5 14.333 3.5 21s2.16699 13.667 3.5 21l-200 -223l-202 -222l-111 179l-112 179l-45 72l-9 15c-1.33301 -7.33301 -2 -14.333 -2 -21
s-0.666992 -13.667 -2 -21l-86 -610h-28z" />
    <glyph glyph-name="N" unicode="N" horiz-adv-x="813" 
d="M760 700l-103.001 -732l-237 334.5l-237 335.5c-2 4.66699 -4.33301 9 -7 13s-5.33398 8.33301 -8.00098 13c0 -5.33301 -0.166992 -10.666 -0.5 -15.999s-0.5 -10.666 -0.5 -15.999l-89 -632h-28l103 732l236.5 -337.5l235.5 -336.5
c2.66699 -4.66699 5.33398 -9 8.00098 -13s5.33398 -8.33301 8.00098 -13c0 5.33301 0.166992 10.666 0.5 15.999s0.5 10.666 0.5 15.999l90 636h28z" />
    <glyph glyph-name="O" unicode="O" horiz-adv-x="840" 
d="M61 349c6.66699 49.333 22.502 95.833 47.502 139.5s56 81.667 93 114s78.5 58 124.5 77s93.667 28.5 143 28.5s94.5 -9.5 135.5 -28.5s75.5 -44.667 103.5 -77s48.167 -70.333 60.5 -114s15.166 -90.167 8.49902 -139.5s-22.5 -95.666 -47.5 -138.999
s-56 -81.166 -93 -113.499s-78.667 -57.833 -125 -76.5s-94.166 -28 -143.499 -28s-94.333 9.33301 -135 28s-74.834 44.167 -102.501 76.5s-47.834 70.166 -60.501 113.499s-15.667 89.666 -9 138.999zM89.002 348c-6 -45.333 -3.33301 -87.999 8 -127.999
s29.833 -74.833 55.5 -104.5s57 -53.167 94 -70.5s78.167 -26 123.5 -26s89.5 8.66699 132.5 26s81.667 41 116 71s63.166 65 86.499 105s38 82.667 44 128c6.66699 45.333 4.16699 88.166 -7.5 128.499s-30.5 75.5 -56.5 105.5s-57.833 53.833 -95.5 71.5
s-79.167 26.5 -124.5 26.5s-89.166 -8.83301 -131.499 -26.5s-80.5 -41.5 -114.5 -71.5s-62.5 -65.167 -85.5 -105.5s-37.833 -83.5 -44.5 -129.5z" />
    <glyph glyph-name="P" unicode="P" horiz-adv-x="455" 
d="M108 362l108.999 0.000976562c36.667 0 67.834 5 93.501 15s46.667 22.833 63 38.5s28.833 32.667 37.5 51s14 36.166 16 53.499c2.66699 20 0.5 39.333 -6.5 58s-17.833 35 -32.5 49s-32.667 25.167 -54 33.5s-45.333 12.5 -72 12.5h-110zM28.999 0.000976562
l99.001 700h145c20 0 41.5 -3.33301 64.5 -10s44 -17.167 63 -31.5s34 -33 45 -56s14.167 -50.5 9.5 -82.5c-8 -56.667 -32.833 -101.667 -74.5 -135s-96.834 -50 -165.501 -50h-111l-47 -335h-28z" />
    <glyph glyph-name="Q" unicode="Q" horiz-adv-x="842" 
d="M89 348c-6 -45.333 -3.33496 -87.999 7.99805 -127.999s29.833 -74.833 55.5 -104.5s57 -53.167 94 -70.5s77.833 -26 122.5 -26c46 0 90.333 8.66699 133 26s81.334 41 116.001 71s63.667 65 87 105s38 82.667 44 128c6.66699 45.333 4.16699 88.166 -7.5 128.499
s-30.5 75.5 -56.5 105.5s-57.833 53.833 -95.5 71.5s-79.167 26.5 -124.5 26.5s-89.166 -8.83301 -131.499 -26.5s-80.5 -41.5 -114.5 -71.5s-62.5 -65.167 -85.5 -105.5s-37.833 -83.5 -44.5 -129.5zM60.998 349.001c6.66699 49.333 22.5029 95.8359 47.5029 139.503
s56 81.667 93 114s78.5 58 124.5 77s93.667 28.5 143 28.5s94.5 -9.5 135.5 -28.5s75.5 -44.667 103.5 -77s48.167 -70.333 60.5 -114s15.166 -90.167 8.49902 -139.5c-5.33301 -36 -15.5 -70.667 -30.5 -104s-33.833 -63.833 -56.5 -91.5s-48.667 -52.334 -78 -74.001
s-60.333 -39.167 -93 -52.5h235l-4 -27h-307c-25.333 -5.33301 -50.333 -8 -75 -8c-49.333 0 -94.333 9.33301 -135 28s-74.834 44.167 -102.501 76.5s-47.834 70.166 -60.501 113.499s-15.667 89.666 -9 138.999z" />
    <glyph glyph-name="R" unicode="R" horiz-adv-x="501" 
d="M108 362l108.999 0.000976562c36.667 0 67.834 5 93.501 15s46.667 22.833 63 38.5s28.833 32.667 37.5 51s14 36.166 16 53.499c2.66699 20 0.5 39.333 -6.5 58s-17.833 35 -32.5 49s-32.667 25.167 -54 33.5s-45.333 12.5 -72 12.5h-110zM28.999 0.000976562
l99 699.999h145c20 0 41.5 -3.33301 64.5 -10s44 -17.167 63 -31.5s34 -33 45 -56s14.167 -50.5 9.5 -82.5c-6.66699 -47.333 -25.167 -86.666 -55.5 -117.999s-70.833 -52 -121.5 -62l56.5 -170l56.5 -170h-30l-57 169l-55 169c-14 -2 -28 -3 -42 -3h-103l-47 -335h-28z
" />
    <glyph glyph-name="S" unicode="S" horiz-adv-x="548" 
d="M467 644c-3.33301 -3.33301 -6.32617 -6.82617 -8.99316 -10.4932s-5.66699 -7.16699 -9 -10.5c-5.33301 5.33301 -11.833 11.166 -19.5 17.499s-16.834 12.166 -27.501 17.499s-23.167 9.83301 -37.5 13.5s-30.5 5.5 -48.5 5.5c-24.667 0 -46.834 -4.33301 -66.501 -13
s-36.667 -20 -51 -34s-25.833 -30 -34.5 -48s-14.334 -36.333 -17.001 -55c-2.66699 -20 -2 -37 2 -51s11 -26 21 -36s22.5 -18.833 37.5 -26.5s31.833 -14.834 50.5 -21.501c20 -7.33301 42.667 -15.166 68 -23.499s48.833 -20 70.5 -35s39 -34.167 52 -57.5
s17.167 -53.333 12.5 -90c-4 -29.333 -13.333 -56 -28 -80s-32.834 -44.5 -54.501 -61.5s-46 -30 -73 -39s-54.833 -13.5 -83.5 -13.5c-26 0 -49.333 3.5 -70 10.5s-38.667 15.333 -54 25s-28.166 19.667 -38.499 30s-18.166 19.166 -23.499 26.499l21 19
c8.66699 -10 18.167 -20 28.5 -30s22.166 -19 35.499 -27s28.333 -14.5 45 -19.5s35.667 -7.5 57 -7.5c24 0 47.667 4 71 12s44.666 19.167 63.999 33.5s35.666 31.5 48.999 51.5s21.666 42.333 24.999 67c4.66699 30.667 1.83398 56.167 -8.49902 76.5
s-24.833 37.166 -43.5 50.499s-39.5 24 -62.5 32l-65.5 22c-14.667 5.33301 -30.334 11.666 -47.001 18.999s-31.834 16.666 -45.501 27.999s-24.5 25.5 -32.5 42.5s-11 38.167 -9 63.5c2 22 7.66699 44.167 17 66.5s22.5 42.5 39.5 60.5s37.833 32.5 62.5 43.5
s53 16.5 85 16.5c25.333 0 50 -4.33301 74 -13s47.667 -24.334 71 -47.001z" />
    <glyph glyph-name="T" unicode="T" horiz-adv-x="553" 
d="M602 700l-4 -27h-263l-95 -673h-28l96 673h-263l4 27h553z" />
    <glyph glyph-name="U" unicode="U" horiz-adv-x="652" 
d="M277 -8c-33.333 0 -63.3291 5 -89.9961 15s-48.834 24.833 -66.501 44.5s-30.167 44.167 -37.5 73.5s-8.33301 63 -3 101l66 474h28l-66 -471c-4.66699 -34 -3.83398 -64 2.49902 -90s17.166 -47.833 32.499 -65.5s34.833 -31.167 58.5 -40.5s50.167 -14 79.5 -14
c28.667 0 56.167 4.66699 82.5 14s49.666 22.833 69.999 40.5s37.5 39.5 51.5 65.5s23.333 56 28 90l66 471h28l-66 -474c-5.33301 -38 -16 -71.667 -32 -101s-35.833 -53.833 -59.5 -73.5s-50.167 -34.5 -79.5 -44.5s-60.333 -15 -93 -15z" />
    <glyph glyph-name="V" unicode="V" horiz-adv-x="722" 
d="M696 700h29l-206.5 -366l-206.5 -366l-207 732h29l90.5 -321.5l91.5 -321.5l2 -13.5c0.666992 -4.33301 1.66699 -8.83301 3 -13.5l6 13.5c2 4.33301 4.33301 8.83301 7 13.5l181 321.5z" />
    <glyph glyph-name="W" unicode="W" horiz-adv-x="1108" 
d="M1069 700h28.002l-206.5 -366l-206.5 -366l-118 417c-1.33301 4 -2.33301 8.16699 -3 12.5s-1.66699 8.5 -3 12.5l-122 -221.5l-126 -220.5l-207 732h29l89.5 -321.5l92.5 -321.5l2 -13.5c0.666992 -4.33301 1.66699 -8.83301 3 -13.5c34 70 71.167 138.833 111.5 206.5
l117.5 204.5l-36.5 129.5l-36.5 129.5h29l89.5 -321.5l92.5 -321.5c1.33301 -4.66699 2.16602 -9.16699 2.49902 -13.5s1.16602 -8.83301 2.49902 -13.5c2 4.66699 4.16699 9.16699 6.5 13.5s4.5 8.83301 6.5 13.5l181.5 321.5z" />
    <glyph glyph-name="X" unicode="X" 
d="M324 359l-86 171l-86 170h33l78 -153l78 -152c1.33301 -2.66699 2.5 -5.33398 3.5 -8.00098s2.16699 -5.33398 3.5 -8.00098c2 2.66699 3.83301 5.33398 5.5 8.00098s3.5 5.33398 5.5 8.00098l119.5 152l119.5 153h33l-270 -345l90.5 -177.5l90.5 -177.5h-34l-141 275
c-5.33301 9.33301 -10.333 19.5 -15 30.5s-9.66699 21.167 -15 30.5c-3.33301 -6 -7 -11.333 -11 -16l-125 -160l-125 -160h-33l140.5 180z" />
    <glyph glyph-name="Y" unicode="Y" horiz-adv-x="638" 
d="M321 263l-37 -263h-32l37 264l-99.5 218l-99.5 218h34l88.5 -193l87.5 -193l9 -27h1c2.66699 4.66699 5 9.16699 7 13.5s4.33301 8.83301 7 13.5l142.5 193l142.5 193h34l-161 -218.5z" />
    <glyph glyph-name="Z" unicode="Z" 
d="M255 700h454.001l-4 -27l-292 -323l-293 -323h523l-3 -27h-559l3 27l292 323l293 323h-414c-20.667 0 -35.834 3.33301 -45.501 10s-13.167 19.667 -10.5 39l2 13h29l-2 -12c-1.33301 -7.33301 0 -13 4 -17s11.667 -6 23 -6z" />
    <glyph glyph-name="bracketleft" unicode="[" horiz-adv-x="338" 
d="M20 -149l125 895h169l-4 -27h-139l-118 -841h140l-4 -27h-169z" />
    <glyph glyph-name="backslash" unicode="\" horiz-adv-x="333" 
d="M97 736l85.5 -377.5l85.5 -377.5h-30l-85.5 377.5l-85.5 377.5h30z" />
    <glyph glyph-name="bracketright" unicode="]" horiz-adv-x="342" 
d="M313 746l-125 -895h-169l4 27h139l118 841h-140l4 27h169z" />
    <glyph glyph-name="asciicircum" unicode="^" horiz-adv-x="470" 
d="M244 660l47.5 -90.5l47.5 -90.5h-25l-37.5 69l-38.5 69l-114 -138h-25l72.5 90.5z" />
    <glyph glyph-name="underscore" unicode="_" horiz-adv-x="600" 
d="M498 0h-400l3 27h400z" />
    <glyph glyph-name="grave" unicode="`" horiz-adv-x="200" 
d="M17 612l35.5 -66.5l35.5 -66.5h-24l-38.5 66.5l-36.5 66.5h28z" />
    <glyph glyph-name="a" unicode="a" horiz-adv-x="500" 
d="M103 188c-3.33301 -23.333 -2.16895 -45.166 3.49805 -65.499s15 -38 28 -53s29.167 -26.833 48.5 -35.5s40.666 -13 63.999 -13s45.833 4.33301 67.5 13s41.167 20.5 58.5 35.5s31.833 32.667 43.5 53s19.167 42.166 22.5 65.499s2 45.166 -4 65.499
s-15.5 38.166 -28.5 53.499s-29.167 27.333 -48.5 36s-40.666 13 -63.999 13s-45.833 -4.33301 -67.5 -13s-41.167 -20.667 -58.5 -36s-31.666 -33.166 -42.999 -53.499s-18.666 -42.166 -21.999 -65.499zM74.9971 188c4 28.667 12.834 55.002 26.501 79.002
s30.5 44.667 50.5 62s42.5 30.666 67.5 39.999s50.833 14 77.5 14c20 0 38.667 -2.83301 56 -8.5s32.666 -13.5 45.999 -23.5s24.666 -21.667 33.999 -35s16 -27.333 20 -42c2 16.667 4.66699 33.334 8 50.001l10 51h21l-52 -375h-25l6 50l4 25.5
c1.33301 8.33301 2.66602 17.166 3.99902 26.499c-8 -14.667 -18.167 -28.5 -30.5 -41.5s-26.666 -24.5 -42.999 -34.5s-34 -18 -53 -24s-38.833 -9 -59.5 -9c-27.333 0 -52.166 5.16699 -74.499 15.5s-41 24.166 -56 41.499s-26 37.833 -33 61.5s-8.5 49.167 -4.5 76.5z
" />
    <glyph glyph-name="b" unicode="b" horiz-adv-x="528" 
d="M471 188c3.33301 23.333 2.16602 45.166 -3.50098 65.499s-15 38.166 -28 53.499s-29.167 27.333 -48.5 36s-40.666 13 -63.999 13s-45.833 -4.33301 -67.5 -13s-41.167 -20.667 -58.5 -36s-31.666 -33.166 -42.999 -53.499s-18.666 -42.166 -21.999 -65.499
s-2 -45.166 4 -65.499s15.5 -38 28.5 -53s29.167 -26.833 48.5 -35.5s40.666 -13 63.999 -13s45.833 4.33301 67.5 13s41 20.5 58 35.5s31.167 32.667 42.5 53s18.666 42.166 21.999 65.499zM499 188c-4 -27.333 -12.667 -53.002 -26 -77.002s-30 -44.667 -50 -62
s-42.5 -31 -67.5 -41s-51.167 -15 -78.5 -15c-42 0.666992 -76.667 11.5 -104 32.5s-44.666 46.5 -51.999 76.5c-1.33301 -9.33301 -2.5 -18.166 -3.5 -26.499s-2.16699 -16.833 -3.5 -25.5l-6 -50h-26l105 750h28l-60 -426c-1.33301 -8.66699 -2.83301 -17 -4.5 -25
s-3.16699 -16.333 -4.5 -25c8 14.667 18.333 28.667 31 42s27 25 43 35s33.5 17.833 52.5 23.5s38.5 8.5 58.5 8.5c27.333 0 52.166 -5.16699 74.499 -15.5s41 -24.166 56 -41.499s26 -38 33 -62s8.5 -49.333 4.5 -76z" />
    <glyph glyph-name="c" unicode="c" horiz-adv-x="385" 
d="M344 57l14.9961 -21.001c-19.333 -13.333 -39.833 -23.833 -61.5 -31.5s-44.167 -11.5 -67.5 -11.5c-27.333 0 -52.166 5.16699 -74.499 15.5s-41 24.166 -56 41.499s-26 37.833 -33 61.5s-8.5 49.167 -4.5 76.5c4 29.333 12.667 56 26 80s30 44.5 50 61.5
s42.5 30.167 67.5 39.5s51.167 14 78.5 14c24 0 46 -3.83301 66 -11.5s37.333 -18.167 52 -31.5l-10.5 -10.5l-10.5 -10.5c-13.333 11.333 -28.333 20.333 -45 27s-35.334 10 -56.001 10c-23.333 0 -45.666 -4.33301 -66.999 -13s-40.666 -20.667 -57.999 -36
s-31.666 -33.166 -42.999 -53.499s-18.666 -42.166 -21.999 -65.499s-2.16602 -45.166 3.50098 -65.499s15 -38 28 -53s29.167 -26.833 48.5 -35.5s40.666 -13 63.999 -13c20 0 39.333 3.16699 58 9.5s36 15.166 52 26.499z" />
    <glyph glyph-name="d" unicode="d" horiz-adv-x="523" 
d="M108 188c-3.33301 -23.333 -2.16895 -45.166 3.49805 -65.499s15 -38 28 -53s29.167 -26.833 48.5 -35.5s40.666 -13 63.999 -13s45.833 4.33301 67.5 13s41.167 20.5 58.5 35.5s31.666 32.667 42.999 53s18.666 42.166 21.999 65.499s2 45.166 -4 65.499
s-15.5 38.166 -28.5 53.499s-29.167 27.333 -48.5 36s-40.666 13 -63.999 13s-45.666 -4.33301 -66.999 -13s-40.666 -20.667 -57.999 -36s-31.666 -33.166 -42.999 -53.499s-18.666 -42.166 -21.999 -65.499zM79.9971 188c4 28 12.667 53.833 26 77.5s30 44.334 50 62.001
s42.5 31.334 67.5 41.001s51.167 14.5 78.5 14.5c20 0 38.667 -2.83301 56 -8.5s32.833 -13.5 46.5 -23.5s25 -21.667 34 -35s15.167 -27.333 18.5 -42c1.33301 8.66699 2.33301 17 3 25s1.66699 16.333 3 25l59 426h28l-105 -750h-26l7 50l4 25.5
c1.33301 8.33301 2.66602 17.166 3.99902 26.499c-8 -14.667 -18.333 -28.5 -31 -41.5s-27 -24.5 -43 -34.5s-33.5 -18 -52.5 -24s-38.833 -9 -59.5 -9c-27.333 0 -52.166 5.16699 -74.499 15.5s-41 24.166 -56 41.499s-26 37.833 -33 61.5s-8.5 49.167 -4.5 76.5z" />
    <glyph glyph-name="e" unicode="e" horiz-adv-x="451" 
d="M280 356c-24 0 -46.502 -3.83398 -67.502 -11.501s-39.667 -18.5 -56 -32.5s-30.166 -30.667 -41.499 -50s-19 -41 -23 -65c-2.66699 -18 -3.66699 -34.667 -3 -50l157.5 59.5l156.5 59.5c-9.33301 26.667 -24.666 48.334 -45.999 65.001s-47 25 -77 25zM435.998 250.999
l-171.002 -65l-170 -65c8 -30 24.333 -54.167 49 -72.5s54.667 -27.5 90 -27.5c22 0 43.333 4 64 12s39.667 19 57 33c2 -3.33301 4.16699 -6.66602 6.5 -9.99902s4.83301 -6.66602 7.5 -9.99902c-20 -16.667 -41.667 -29.667 -65 -39s-48 -14 -74 -14
c-27.333 0 -52.166 5.16699 -74.499 15.5s-41 24.166 -56 41.499s-26 37.833 -33 61.5s-8.5 49.167 -4.5 76.5c4 29.333 12.333 56 25 80s28.834 44.5 48.501 61.5s42.167 30.167 67.5 39.5s52.333 14 81 14c40 0 73.5 -12.333 100.5 -37s44.167 -56.334 51.5 -95.001z" />
    <glyph glyph-name="f" unicode="f" horiz-adv-x="283" 
d="M70 347l4.00488 27.001h65l20 144c5.33301 36.667 15.166 69.334 29.499 98.001s31.666 52.667 51.999 72s43.166 34.166 68.499 44.499s51.666 16.166 78.999 17.499l-4 -27c-22.667 0 -44.834 -4.83301 -66.501 -14.5s-41.5 -23.167 -59.5 -40.5
s-33.167 -38.5 -45.5 -63.5s-20.833 -53.167 -25.5 -84.5l-20 -146h127l-4 -27h-127l-48 -347h-28l48 347h-65z" />
    <glyph glyph-name="g" unicode="g" horiz-adv-x="518" 
d="M103 188c-3.33301 -23.333 -2.16895 -45.166 3.49805 -65.499s15 -38 28 -53s29.167 -26.833 48.5 -35.5s40.666 -13 63.999 -13s45.833 4.33301 67.5 13s41.167 20.5 58.5 35.5s31.833 32.667 43.5 53s19.167 42.166 22.5 65.499s2 45.166 -4 65.499
s-15.5 38.166 -28.5 53.499s-29.167 27.333 -48.5 36s-40.666 13 -63.999 13s-45.833 -4.33301 -67.5 -13s-41.167 -20.667 -58.5 -36s-31.666 -33.166 -42.999 -53.499s-18.666 -42.166 -21.999 -65.499zM470.997 375h21l-55 -393l-1 -8
c-5.33301 -35.333 -14.833 -66.666 -28.5 -93.999s-30.167 -50.5 -49.5 -69.5s-41.166 -33.667 -65.499 -44s-49.5 -15.833 -75.5 -16.5c-28 1.33301 -55.167 6.5 -81.5 15.5s-47.166 23.833 -62.499 44.5c3.33301 3.33301 7.16602 6.5 11.499 9.5s8.5 6.16699 12.5 9.5
c13.333 -18 31.333 -31 54 -39s45.667 -12 69 -12c22 0 43.333 4.66699 64 14s39.5 22.5 56.5 39.5s31.5 37.5 43.5 61.5s20 50.667 24 80l11 74c1.33301 9.33301 3 18.333 5 27s3.66699 17.667 5 27c-8 -14.667 -18.333 -28.5 -31 -41.5s-27.167 -24.333 -43.5 -34
s-34 -17.334 -53 -23.001s-38.5 -8.5 -58.5 -8.5c-27.333 0 -52.166 5 -74.499 15s-41 23.833 -56 41.5s-26 38.167 -33 61.5s-8.5 48.666 -4.5 75.999c4 29.333 12.667 56 26 80s30 44.5 50 61.5s42.5 30.167 67.5 39.5s51.167 14 78.5 14c20 0 38.667 -2.83301 56 -8.5
s32.666 -13.5 45.999 -23.5s24.666 -21.667 33.999 -35s16 -27.333 20 -42c2 16.667 4.66699 33.334 8 50.001z" />
    <glyph glyph-name="h" unicode="h" horiz-adv-x="491" 
d="M215 750l27.998 0.00195312l-60 -428l-10 -45c18 32 42.833 57.5 74.5 76.5s66.5 28.5 104.5 28.5c36 0 63.167 -10.333 81.5 -31s25.5 -47.667 21.5 -81l-37 -270h-28l37 268c2.66699 23.333 -2.66602 43.333 -15.999 60s-34.333 25.667 -63 27
c-21.333 0 -42.166 -3.5 -62.499 -10.5s-38.833 -16.833 -55.5 -29.5s-30.667 -27.834 -42 -45.501s-18.333 -36.834 -21 -57.501l-29 -212h-28z" />
    <glyph glyph-name="i" unicode="i" horiz-adv-x="183" 
d="M139 504c0.666992 7.33301 4 13.666 10 18.999s12.667 8 20 8s13.166 -2.66699 17.499 -8s5.83301 -11.666 4.5 -18.999s-4.83301 -13.5 -10.5 -18.5s-12.167 -7.5 -19.5 -7.5s-13.166 2.5 -17.499 7.5s-5.83301 11.167 -4.5 18.5zM108 0h-28l52 375h28z" />
    <glyph glyph-name="j" unicode="j" horiz-adv-x="225" 
d="M163 504c0.666992 7.33301 4 13.666 10 18.999s12.667 8 20 8s13.166 -2.66699 17.499 -8s5.83301 -11.666 4.5 -18.999s-4.83301 -13.5 -10.5 -18.5s-12.167 -7.5 -19.5 -7.5s-13.166 2.5 -17.499 7.5s-5.83301 11.167 -4.5 18.5zM44 -180
c-3.33301 3.33301 -6.33301 6.5 -9 9.5s-5.66699 6.16699 -9 9.5c19.333 17.333 35.666 38.833 48.999 64.5s22.333 55.167 27 88.5l54 383h28l-53 -381c-5.33301 -38.667 -15.666 -72.5 -30.999 -101.5s-34 -53.167 -56 -72.5z" />
    <glyph glyph-name="k" unicode="k" horiz-adv-x="449" 
d="M380 384l15 -18l-81 -67.5l-80 -67.5l67.5 -115.5l68.5 -115.5h-33l-63.5 106l-63.5 106l-39.5 -32.5l-39.5 -32.5l-20 -147h-27l105 750h27l-80 -567l122 100.5z" />
    <glyph glyph-name="l" unicode="l" horiz-adv-x="185" 
d="M108 0h-28l105 750h28z" />
    <glyph glyph-name="m" unicode="m" horiz-adv-x="796" 
d="M162 375l25.9951 0.00195312l-6 -44l-4 -27c-1.33301 -8.66699 -3 -17.667 -5 -27c18 32 42.833 57.5 74.5 76.5s66.5 28.5 104.5 28.5c34 0 60 -9.16699 78 -27.5s26.667 -42.5 26 -72.5c18 30 42.833 54.167 74.5 72.5s65.834 27.5 102.501 27.5
c36 0 63 -10.333 81 -31s25 -47.667 21 -81l-37 -270h-28l37 268c2.66699 23.333 -2.66602 43.333 -15.999 60s-34 25.667 -62 27c-21.333 0 -42 -3.5 -62 -10.5s-38.167 -16.5 -54.5 -28.5s-30.166 -26.5 -41.499 -43.5s-19 -35.5 -23 -55.5l-30 -217h-28l37 268
c2.66699 23.333 -2.66602 43.333 -15.999 60s-34.333 25.667 -63 27c-21.333 0 -42.166 -3.5 -62.499 -10.5s-38.833 -16.833 -55.5 -29.5s-30.667 -27.834 -42 -45.501s-18.333 -36.834 -21 -57.501l-29 -212h-28z" />
    <glyph glyph-name="n" unicode="n" horiz-adv-x="495" 
d="M162 375l25.998 0.00195312l-6 -44l-4 -27c-1.33301 -8.66699 -3 -17.667 -5 -27c18 32 43 57.5 75 76.5s66.667 28.5 104 28.5c36 0 63.167 -10.333 81.5 -31s25.5 -47.667 21.5 -81l-37 -270h-28l37 268c2.66699 23.333 -2.66602 43.333 -15.999 60
s-34.333 25.667 -63 27c-21.333 0 -42.166 -3.5 -62.499 -10.5s-38.833 -16.833 -55.5 -29.5s-30.667 -27.834 -42 -45.501s-18.333 -36.834 -21 -57.501l-29 -212h-28z" />
    <glyph glyph-name="o" unicode="o" horiz-adv-x="469" 
d="M62 188c4 30 12.5 57.001 25.5 81.001s29.333 44.5 49 61.5s42.167 30.167 67.5 39.5s52 14 80 14c27.333 0 52.166 -5.16699 74.499 -15.5s41.333 -24.333 57 -42s27 -38.5 34 -62.5s8.5 -49.333 4.5 -76c-4 -30.667 -12.667 -58 -26 -82s-30 -44.333 -50 -61
s-42.667 -29.5 -68 -38.5s-52 -13.5 -80 -13.5c-27.333 0 -52.166 5.16699 -74.499 15.5s-41 24.166 -56 41.499s-26 37.833 -33 61.5s-8.5 49.167 -4.5 76.5zM90 188.001c-3.33301 -23.333 -2 -45.1631 4 -65.4961s15.5 -38 28.5 -53s29 -26.833 48 -35.5
s40.167 -13 63.5 -13c22.667 0 44.834 4 66.501 12s41.167 19.333 58.5 34s31.833 32.167 43.5 52.5s19.167 43.166 22.5 68.499c3.33301 23.333 2 45.166 -4 65.499s-15.5 38.166 -28.5 53.499s-29.167 27.333 -48.5 36s-40.666 13 -63.999 13
c-24.667 0 -47.834 -4 -69.501 -12s-40.834 -19.5 -57.501 -34.5s-30.5 -32.833 -41.5 -53.5s-18.167 -43.334 -21.5 -68.001z" />
    <glyph glyph-name="p" unicode="p" horiz-adv-x="525" 
d="M456 187c3.33301 23.333 2.16602 45.166 -3.50098 65.499s-15 38 -28 53s-29.167 26.833 -48.5 35.5s-40.666 13 -63.999 13s-45.833 -4.33301 -67.5 -13s-41.167 -20.5 -58.5 -35.5s-31.666 -32.667 -42.999 -53s-18.666 -42.166 -21.999 -65.499
s-2.16602 -45.166 3.50098 -65.499s15 -38.166 28 -53.499s29.167 -27.333 48.5 -36s40.666 -13 63.999 -13s45.833 4.33301 67.5 13s41.167 20.667 58.5 36s31.666 33.166 42.999 53.499s18.666 42.166 21.999 65.499zM484 187
c-4 -29.333 -12.6689 -56.0039 -26.002 -80.0039s-30 -44.5 -50 -61.5s-42.667 -30.167 -68 -39.5s-51.666 -14 -78.999 -14c-20.667 0 -39.667 2.83301 -57 8.5s-32.5 13.5 -45.5 23.5s-24 21.5 -33 34.5s-15.167 26.833 -18.5 41.5c-1.33301 -8 -2.16602 -16 -2.49902 -24
s-1.16602 -15.667 -2.49902 -23l-42 -303h-29l88 625h25c-2 -17.333 -4.33301 -34.666 -7 -51.999s-5 -34.666 -7 -51.999c8 14.667 18.333 28.834 31 42.501s27.167 25.5 43.5 35.5s34 18 53 24s38.5 9 58.5 9c27.333 0 52.166 -5.16699 74.499 -15.5
s41 -24.166 56 -41.499s26 -38 33 -62s8.5 -49.333 4.5 -76z" />
    <glyph glyph-name="q" unicode="q" horiz-adv-x="512" 
d="M106 187c-3.33301 -23.333 -2.16895 -45.166 3.49805 -65.499s15 -38.166 28 -53.499s29.167 -27.333 48.5 -36s40.666 -13 63.999 -13s45.833 4.33301 67.5 13s41.167 20.667 58.5 36s31.833 33.166 43.5 53.499s19.167 42.166 22.5 65.499s2 45.166 -4 65.499
s-15.5 38 -28.5 53s-29.167 26.833 -48.5 35.5s-40.666 13 -63.999 13s-45.833 -4.33301 -67.5 -13s-41.167 -20.5 -58.5 -35.5s-31.666 -32.667 -42.999 -53s-18.666 -42.166 -21.999 -65.499zM77.9971 187c4 29.333 12.667 56.0049 26 80.0049s30 44.5 50 61.5
s42.667 30.167 68 39.5s51.666 14 78.999 14c20 0 38.667 -3 56 -9s32.833 -14 46.5 -24s25 -21.833 34 -35.5s15.5 -27.834 19.5 -42.501c2 17.333 4.16699 34.666 6.5 51.999s4.83301 34.666 7.5 51.999h25l-88 -625h-29l43 303c1.33301 7.33301 2.83301 15 4.5 23
s3.5 16 5.5 24c-16 -30.667 -40.5 -56.334 -73.5 -77.001s-70.5 -31 -112.5 -31c-27.333 0 -52.166 5.16699 -74.499 15.5s-41 24.166 -56 41.499s-26 37.833 -33 61.5s-8.5 49.167 -4.5 76.5z" />
    <glyph glyph-name="r" unicode="r" horiz-adv-x="331" 
d="M344 355c-21.333 -0.666992 -42 -4.66699 -62 -12s-38 -17.333 -54 -30s-29.5 -27.667 -40.5 -45s-17.833 -36 -20.5 -56l-29 -212h-28l52 375h26l-6 -44l-4 -27c-1.33301 -8.66699 -3 -17.667 -5 -27c19.333 32.667 45 58.167 77 76.5s65 27.833 99 28.5z" />
    <glyph glyph-name="s" unicode="s" horiz-adv-x="399" 
d="M348 337l-10.0029 -10.0029l-10 -10c-8 11.333 -19.5 20.166 -34.5 26.499s-29.833 9.5 -44.5 9.5c-8 0 -16.667 -1.33301 -26 -4s-18.166 -6.66699 -26.499 -12s-15.5 -12.666 -21.5 -21.999s-10 -20.333 -12 -33c-2.66699 -17.333 0.166016 -30.666 8.49902 -39.999
s19.166 -17 32.499 -23s28 -11.333 44 -16s30.5 -10.834 43.5 -18.501s23.333 -17.667 31 -30s10.167 -29.5 7.5 -51.5c-1.33301 -12 -5.16602 -24.5 -11.499 -37.5s-15 -25 -26 -36s-24.667 -20 -41 -27s-34.833 -10.5 -55.5 -10.5
c-9.33301 0 -19.166 0.833008 -29.499 2.5s-20.5 4.33398 -30.5 8.00098s-19.167 8.5 -27.5 14.5s-15.5 13.333 -21.5 22c3.33301 3.33301 6.83301 6.5 10.5 9.5l11.5 9.5c8 -11.333 21.333 -20.666 40 -27.999s36.667 -11 54 -11c8 0 17.333 1.66699 28 5
s20.834 8.33301 30.501 15s18.334 15 26.001 25s12.5 22 14.5 36c2.66699 18.667 0 33.167 -8 43.5s-18.667 18.666 -32 24.999s-28 11.666 -44 15.999s-30.667 9.83301 -44 16.5s-24 15.834 -32 27.501s-10.667 28.167 -8 49.5c2.66699 16.667 8 31.334 16 44.001
s17.667 23.334 29 32.001s23.5 15.167 36.5 19.5s25.5 6.5 37.5 6.5c14 0 30.333 -3.16699 49 -9.5s34 -17.5 46 -33.5z" />
    <glyph glyph-name="t" unicode="t" horiz-adv-x="282" 
d="M216 619h27l-34 -249h121l-4 -27h-121l-48 -343h-27l47 343h-88l4 27h88z" />
    <glyph glyph-name="u" unicode="u" horiz-adv-x="529" 
d="M418 -2l-27.999 -0.00195312l7 55l9 45c-18 -32 -43 -57.5 -75 -76.5s-66.667 -28.5 -104 -28.5c-36 0 -63 10.333 -81 31s-25.333 47.667 -22 81l38 270h28l-38 -268c-2 -23.333 3.66699 -43.333 17 -60s34 -25.667 62 -27c21.333 0 42.333 3.5 63 10.5
s39.167 16.833 55.5 29.5s30.166 27.834 41.499 45.501s18.333 36.834 21 57.501l30 212h28z" />
    <glyph glyph-name="v" unicode="v" horiz-adv-x="500" 
d="M252 -23l-73 199l-73 199h29l63.5 -171.5c21.667 -57.667 42.167 -115.5 61.5 -173.5l109 173l112 172h28l-128 -199z" />
    <glyph glyph-name="w" unicode="w" horiz-adv-x="772" 
d="M415 278l-17.5 48.5l-17.5 48.5h29l61.5 -172.5l60.5 -172.5l109 173l109 172h29l-127.5 -199l-127.5 -199l-48.5 136.5l-48.5 136.5l-87.5 -136.5l-87.5 -136.5l-70.5 199l-72.5 199h29l61.5 -172.5l60.5 -172.5l77.5 124.5z" />
    <glyph glyph-name="x" unicode="x" horiz-adv-x="403" 
d="M204 190l-55 92.5l-55 92.5h35l50 -84l49 -84l72.5 83.5l71.5 83.5h34l-82.5 -95.5l-81.5 -95.5l55 -91.5l55 -91.5h-34l-50 83.5l-50 83.5l-71.5 -83.5l-70.5 -83.5h-35l81 95z" />
    <glyph glyph-name="y" unicode="y" horiz-adv-x="489" 
d="M103 -250h-32l80 123.5l79 123.5l-68 189l-68 189h31l29 -81.5l33 -93l33 -93l29 -81.5l52.5 81.5l59.5 93l59 93l52 81.5h31l-199.5 -312.5z" />
    <glyph glyph-name="z" unicode="z" horiz-adv-x="451" 
d="M174 375h262.001l-4 -27l-174 -160.5l-175 -160.5h322l-3 -27h-360l3 27l175 160.5l174 160.5h-220c-20.667 0 -35.834 3.33301 -45.501 10s-13.167 19.667 -10.5 39l2 13h29l-2 -12c-0.666992 -7.33301 0.833008 -13 4.5 -17s11.167 -6 22.5 -6z" />
    <glyph glyph-name="braceleft" unicode="{" horiz-adv-x="282" 
d="M27 281l4.99609 35.001c16.667 0.666992 30.834 5.5 42.501 14.5s21.334 20.167 29.001 33.5s13.5 27.833 17.5 43.5s7 30.167 9 43.5l25 177c4 30.667 9.66699 54 17 70s15.833 27.5 25.5 34.5s20 11 31 12s22.5 1.5 34.5 1.5h43l-4 -27h-55
c-20.667 0 -35.5 -8.16699 -44.5 -24.5s-16.167 -45.166 -21.5 -86.499l-21 -145c-4 -29.333 -9.33301 -53.5 -16 -72.5s-13.834 -34.5 -21.501 -46.5s-16 -21.333 -25 -28s-17.833 -12.334 -26.5 -17.001c8 -4.66699 15.333 -10.5 22 -17.5s12.334 -16.667 17.001 -29
s7.5 -27.833 8.5 -46.5s-0.5 -42.334 -4.5 -71.001l-21 -146c-5.33301 -40.667 -5.66602 -69.167 -0.999023 -85.5s17.334 -24.5 38.001 -24.5h54l-3 -27h-43c-13.333 0 -25.666 0.5 -36.999 1.5s-20.5 6 -27.5 15s-11.333 23.5 -13 43.5s0.166016 49 5.49902 87l21 147
c2 13.333 3 27.833 3 43.5s-2 30.167 -6 43.5s-10.5 24.5 -19.5 33.5s-21.5 13.833 -37.5 14.5z" />
    <glyph glyph-name="bar" unicode="|" horiz-adv-x="229" 
d="M31 -232l131 932h28l-131 -932h-28z" />
    <glyph glyph-name="braceright" unicode="}" horiz-adv-x="320" 
d="M292 316l-4.99902 -34.999c-20 -1.33301 -36.333 -8.33301 -49 -21s-22.667 -27.667 -30 -45s-12.666 -35 -15.999 -53s-5.66602 -33 -6.99902 -45l-21 -147c-4 -30.667 -9.83301 -54.167 -17.5 -70.5s-16.167 -28 -25.5 -35s-19.5 -10.833 -30.5 -11.5
s-22.5 -1 -34.5 -1h-42l3 27h55c20.667 0 35.5 8.16699 44.5 24.5s16.167 44.833 21.5 85.5l26 176c2.66699 22 7.33398 40.667 14.001 56s14 28.166 22 38.499s16.333 18.5 25 24.5s16.334 11 23.001 15c-8 4.66699 -15.333 10.334 -22 17.001s-12.334 16 -17.001 28
s-7.33398 27.5 -8.00098 46.5s1 43.167 5 72.5l20 145c5.33301 41.333 5.66602 70.166 0.999023 86.499s-17.334 24.5 -38.001 24.5h-54l3 27h43c12 0 23.5 -0.333008 34.5 -1s20.167 -4.5 27.5 -11.5s12.5 -18.667 15.5 -35s2.5 -39.833 -1.5 -70.5l-21 -148
c-2 -12 -3.83301 -27.167 -5.5 -45.5s-1.33398 -36 0.999023 -53s8 -32 17 -45s23.5 -19.833 43.5 -20.5z" />
    <glyph glyph-name="asciitilde" unicode="~" horiz-adv-x="489" 
d="M266 494c-8.66699 11.333 -17.0039 18.999 -25.0039 22.999s-16.667 6 -26 6c-5.33301 0 -11.333 -0.666992 -18 -2s-13.5 -4 -20.5 -8s-13.333 -9.5 -19 -16.5s-9.83398 -15.833 -12.501 -26.5c-3.33301 0.666992 -6.66602 1 -9.99902 1s-6.66602 0.333008 -9.99902 1
c2.66699 12.667 7.33398 23.5 14.001 32.5s14.334 16.333 23.001 22s18 9.83398 28 12.501s19.667 4 29 4c13.333 0 25 -3.33301 35 -10s19.667 -15.667 29 -27s17.833 -19 25.5 -23s16.167 -6 25.5 -6c5.33301 0 11.5 0.666992 18.5 2s14 4 21 8s13.333 9.5 19 16.5
s9.83398 15.833 12.501 26.5c3.33301 -0.666992 6.5 -1 9.5 -1s6.16699 -0.333008 9.5 -1c-5.33301 -25.333 -17.5 -43.5 -36.5 -54.5s-38.167 -16.5 -57.5 -16.5c-13.333 0 -25 3.33301 -35 10s-19.667 15.667 -29 27z" />
    <glyph glyph-name=".null" horiz-adv-x="0" 
 />
    <glyph glyph-name="nonmarkingreturn" horiz-adv-x="300" 
 />
    </font>
</defs>
</svg>
